Coordinates																	
version=1																	
nRows=60																	
nColumns=18																	
inDegrees=yes																	
																	
"Units are S.I. units (second, meters, Newtons, ...)"																	
Angles are in degrees.																	
																	
endheader																	
time	ground_thorax_rot_x	ground_thorax_rot_y	ground_thorax_rot_z	ground_thorax_tx	ground_thorax_ty	ground_thorax_tz	clav_prot	clav_elev	scapula_abduction	scapula_elevation	scapula_upward_rot	scapula_winging	plane_elv	shoulder_elv	axial_rot	elbow_flexion	pro_sup
1.75	0.62421998	-2.926069801	-10.09311615	-0.00423131	0.00403036	-0.00078352	-39.45776453	9.531883408	-11.93121553	-2.201827065	58.00285245	-10.95685667	8.043781224	74.53178426	7.987935376	0	34.32
1.76	0.649471681	-3.003028232	-10.10024957	-0.00423131	0.00403036	-0.00078352	-39.47796775	9.608627657	-11.82750499	-2.156853731	58.20267363	-10.994253	8.129929091	74.65962817	7.91127547	0	34.32
1.77	0.671067999	-3.07853453	-10.10780314	-0.00423131	0.00403036	-0.00078352	-39.4961506	9.67487711	-11.72842587	-2.118339856	58.38827965	-11.02728618	8.22613535	74.78588115	7.839415799	0	34.32
1.78	0.685743533	-3.152289394	-10.11696026	-0.00423131	0.00403036	-0.00078352	-39.51076052	9.724503457	-11.63241928	-2.090230447	58.55587868	-11.05352494	8.33147563	74.91758414	7.765694874	0	34.32
1.79	0.690858437	-3.224002828	-10.12877505	-0.00423131	0.00403036	-0.00078352	-39.52049694	9.752607427	-11.53769236	-2.075690683	58.70299561	-11.07101726	8.444195982	75.06130018	7.682712499	0	34.32
1.8	0.684718753	-3.293437868	-10.1440226	-0.00423131	0.00403036	-0.00078352	-39.52454413	9.7561805	-11.44253298	-2.076683739	58.82883188	-11.07858428	8.562092346	75.22223344	7.583410609	0	34.32
1.81	0.666795863	-3.36044148	-10.16307655	-0.00423131	0.00403036	-0.00078352	-39.52275685	9.734569279	-11.34562542	-2.093673986	58.93444538	-11.07603525	8.682937545	75.40352081	7.46209712	0	34.32
1.82	0.637816513	-3.424953591	-10.18583175	-0.00423131	0.00403036	-0.00078352	-39.51577055	9.68967431	-11.24632117	-2.125499143	59.0227214	-11.06427154	8.804887623	75.60579193	7.315280023	0	34.32
1.83	0.599708693	-3.486991017	-10.2116847	-0.00423131	0.00403036	-0.00078352	-39.50501491	9.625847448	-11.1448215	-2.169434212	59.09813026	-11.0452599	8.926802304	75.82705791	7.142208286	0	34.32
1.84	0.555404789	-3.546609536	-10.23957766	-0.00423131	0.00403036	-0.00078352	-39.49262024	9.549489465	-11.04223863	-2.22144596	59.16629275	-11.02187096	9.04842868	76.06294626	6.945056828	0	34.32
1.85	0.508520807	-3.603853017	-10.26810378	-0.00423131	0.00403036	-0.00078352	-39.48122072	9.468388111	-10.94051838	-2.276612218	59.23339925	-10.99759609	9.170420812	76.3072533	6.728739449	0	34.32
1.86	0.46294721	-3.658702052	-10.29566237	-0.00423131	0.00403036	-0.00078352	-39.4736739	9.390871772	-10.84222815	-2.329658195	59.3055492	-10.97617338	9.294196377	76.55274254	6.500380603	0	34.32
1.87	0.422400796	-3.7110351	-10.32064551	-0.00423131	0.00403036	-0.00078352	-39.47273049	9.324880708	-10.75023567	-2.375545131	59.38809094	-10.96116759	9.421659495	76.79208176	6.268519117	0	34.32
1.88	0.389995457	-3.760612875	-10.34163203	-0.00423131	0.00403036	-0.00078352	-39.48069898	9.277072803	-10.66732286	-2.41003733	59.48504634	-10.9555584	9.554841196	77.01879035	6.042149576	0	34.32
1.89	0.367890299	-3.807092152	-10.35756224	-0.00423131	0.00403036	-0.00078352	-39.49915375	9.252080742	-10.59579149	-2.430173723	59.59869725	-10.96139301	9.695521835	77.22806413	5.829726103	0	34.32
1.9	0.357064887	-3.850069613	-10.36786901	-0.00423131	0.00403036	-0.00078352	-39.52873106	9.252020932	-10.5371205	-2.434580575	59.72939144	-10.97955256	9.844901188	77.41736061	5.638256109	0	34.32
1.91	0.357253558	-3.889150806	-10.37254633	-0.00423131	0.00403036	-0.00078352	-39.56904497	9.276321942	-10.49172839	-2.42358244	59.87559506	-11.0096666	10.00337196	77.58666233	5.472597124	0	34.32
1.92	0.367045935	-3.92403451	-10.37214609	-0.00423131	0.00403036	-0.00078352	-39.61873653	9.321895101	-10.45887832	-2.399096831	60.03418114	-11.050188	10.17043303	77.7383848	5.335039921	0	34.32
1.93	0.384133491	-3.954599554	-10.36770495	-0.00423131	0.00403036	-0.00078352	-39.67564755	9.383618852	-10.4367417	-2.364330212	60.20090544	-11.0986156	10.34475316	77.87695127	5.225219869	0	34.32
1.94	0.405657649	-3.980979578	-10.36061398	-0.00423131	0.00403036	-0.00078352	-39.73708997	9.455060365	-10.42261107	-2.323323262	60.37099009	-11.15182884	10.52436901	78.00810861	5.140352472	0	34.32
1.95	0.428599038	-4.003611959	-10.35245202	-0.00423131	0.00403036	-0.00078352	-39.80016634	9.529322162	-10.41322951	-2.280416118	60.53971898	-11.20648102	10.70697756	78.13809795	5.075745578	0	34.32
1.96	0.450143643	-4.023250056	-10.34480845	-0.00423131	0.00403036	-0.00078352	-39.86209079	9.599885505	-10.40518571	-2.239714531	60.70295166	-11.25939059	10.89026736	78.27281222	5.0255066	0	34.32
1.97	0.467970627	-4.040932997	-10.33912021	-0.00423131	0.00403036	-0.00078352	-39.92046289	9.661329426	-10.39531434	-2.204633692	60.85748335	-11.30787374	11.07222882	78.41706785	4.983342682	0	34.32
1.98	0.48042621	-4.05791368	-10.33654335	-0.00423131	0.00403036	-0.00078352	-39.97345857	9.709832684	-10.38104248	-2.177578681	61.00121345	-11.34997534	11.25139082	78.57409067	4.943347249	0	34.32
1.99	0.486573586	-4.075552382	-10.33787173	-0.00423131	0.00403036	-0.00078352	-40.01992052	9.743409326	-10.36063361	-2.159793246	61.13312548	-11.38457641	11.42694896	78.74527325	4.900676812	0	34.32
2	0.486134445	-4.095189316	-10.34350612	-0.00423131	0.00403036	-0.00078352	-40.05934976	9.761877258	-10.33329977	-2.151377826	61.2531182	-11.41137938	11.59877424	78.93021028	4.852044513	0	34.32
2.01	0.47935755	-4.11801329	-10.3534687	-0.00423131	0.00403036	-0.00078352	-40.09181776	9.766603298	-10.29917501	-2.151449809	61.36175332	-11.43079316	11.76731565	79.12697196	4.795986927	0	34.32
2.02	0.466859717	-4.144944746	-10.36745214	-0.00423131	0.00403036	-0.00078352	-40.11783	9.760098899	-10.25916593	-2.158399446	61.4599939	-11.44375407	11.93343069	79.33254003	4.732893005	0	34.32
2.03	0.449482676	-4.176549477	-10.38488909	-0.00423131	0.00403036	-0.00078352	-40.13817602	9.745553266	-10.21471324	-2.170186739	61.54899821	-11.45152381	12.09818936	79.5433146	4.664813699	0	34.32
2.04	0.428196764	-4.212994701	-10.40502903	-0.00423131	0.00403036	-0.00078352	-40.15379668	9.72638431	-10.16750966	-2.184628342	61.63000997	-11.45550206	12.26269875	79.75560213	4.595094105	0	34.32
2.05	0.404062809	-4.254052604	-10.427012	-0.00423131	0.00403036	-0.00078352	-40.16568964	9.705866732	-10.11922171	-2.199636718	61.70435292	-11.45707969	12.42798541	79.96601448	4.527884817	0	34.32
2.06	0.378242506	-4.299149314	-10.44993343	-0.00423131	0.00403036	-0.00078352	-40.17485989	9.686867216	-10.07125643	-2.213392089	61.77350665	-11.45754411	12.59495479	80.17173847	4.467595401	0	34.32
2.07	0.352030766	-4.3474506	-10.47289859	-0.00423131	0.00403036	-0.00078352	-40.182309	9.671687557	-10.02460112	-2.224446037	61.83921693	-11.4580332	12.76442504	80.37066724	4.41835148	0	34.32
2.08	0.326875563	-4.397970628	-10.49506796	-0.00423131	0.00403036	-0.00078352	-40.18904707	9.661994591	-9.979746767	-2.231769407	61.9035861	-11.45952347	12.93721175	80.56141182	4.383509814	0	34.32
2.09	0.304353798	-4.449687415	-10.51569635	-0.00423131	0.00403036	-0.00078352	-40.19610699	9.658805565	-9.93668949	-2.234763648	61.96909686	-11.46283362	13.1142261	80.74322753	4.365274883	0	34.32
2.1	0.286084596	-4.501648564	-10.53416722	-0.00423131	0.00403036	-0.00078352	-40.20454311	9.662499781	-9.89499141	-2.23325344	62.03854329	-11.46862594	13.29654471	80.91589528	4.364447792	0	34.32
2.11	0.273580533	-4.553053303	-10.55002217	-0.00423131	0.00403036	-0.00078352	-40.21540328	9.672838978	-9.853876132	-2.227471318	62.1148699	-11.47739566	13.48541611	81.07959216	4.380324969	0	34.32
2.12	0.268057152	-4.603301256	-10.56298287	-0.00423131	0.00403036	-0.00078352	-40.22967312	9.688994615	-9.812334381	-2.218035319	62.20094452	-11.48944679	13.68218457	81.2347747	4.410750944	0	34.32
2.13	0.270236274	-4.652004012	-10.57296164	-0.00423131	0.00403036	-0.00078352	-40.24819984	9.709593687	-9.76922158	-2.205912516	62.29930704	-11.50486216	13.88813331	81.38208645	4.452316341	0	34.32
2.14	0.280184924	-4.698961365	-10.58005701	-0.00423131	0.00403036	-0.00078352	-40.27160996	9.732801173	-9.723338615	-2.192357546	62.41193989	-11.52347975	14.10427042	81.5222923	4.500679141	0	34.32
2.15	0.297227531	-4.744109298	-10.58453276	-0.00423131	0.00403036	-0.00078352	-40.30023681	9.75645433	-9.673497142	-2.178817421	62.54009714	-11.54488851	14.33109793	81.65623791	4.55097451	0	34.32
2.16	0.319955785	-4.787450609	-10.5867818	-0.00423131	0.00403036	-0.00078352	-40.33407234	9.778253077	-9.618578483	-2.16680116	62.68421187	-11.56845252	14.5684129	81.7848317	4.59826752	0	34.32
2.17	0.346341841	-4.828981225	-10.58727971	-0.00423131	0.00403036	-0.00078352	-40.37275279	9.795995263	-9.557598537	-2.157722676	62.84388142	-11.59336619	14.81518698	81.90904691	4.637996183	0	34.32
2.18	0.373941141	-4.868625404	-10.58653496	-0.00423131	0.00403036	-0.00078352	-40.41558173	9.807830771	-9.489789084	-2.152734729	63.01791464	-11.61873552	15.06955932	82.02993964	4.666351975	0	34.32
2.19	0.400155417	-4.906191268	-10.58504305	-0.00423131	0.00403036	-0.00078352	-40.46158794	9.812498662	-9.414699079	-2.152577665	63.2044175	-11.643675	15.32895741	82.14867486	4.680553182	0	34.32
2.2	0.422517455	-4.94135452	-10.58325058	-0.00423131	0.00403036	-0.00078352	-40.50961103	9.809509582	-9.332309751	-2.157467419	63.4008951	-11.66740583	15.59033784	82.26654727	4.678982642	0	34.32
2.21	0.438957679	-4.973673375	-10.58153237	-0.00423131	0.00403036	-0.00078352	-40.5584044	9.799241901	-9.243147263	-2.167042665	63.6043571	-11.68934145	15.85051685	82.38498021	4.661183384	0	34.32
2.22	0.448018005	-5.002632521	-10.58018146	-0.00423131	0.00403036	-0.00078352	-40.60674404	9.782932711	-9.148368847	-2.180382295	63.81142539	-11.70914829	16.10654347	82.50548659	4.627729121	0	34.32
2.23	0.44898836	-5.02770932	-10.57940927	-0.00423131	0.00403036	-0.00078352	-40.65353111	9.76256063	-9.049794741	-2.19609376	64.01845278	-11.72677349	16.35605893	82.6295822	4.580006454	0	34.32
2.24	0.441953525	-5.048452416	-10.57935166	-0.00423131	0.00403036	-0.00078352	-40.69787671	9.740632793	-8.949860146	-2.212462548	64.22166636	-11.74243589	16.59758555	82.75865312	4.519957802	0	34.32
2.25	0.427750034	-5.064561758	-10.58007719	-0.00423131	0.00403036	-0.00078352	-40.73915869	9.719900769	-8.851469139	-2.22764513	64.41734708	-11.75658055	16.83069749	82.89379335	4.449835781	0	34.32
2.26	0.407843169	-5.075959716	-10.58159502	-0.00423131	0.00403036	-0.00078352	-40.77704259	9.703037942	-8.757745965	-2.239882925	64.60204885	-11.76980083	17.05604283	83.03564135	4.372010715	0	34.32
2.27	0.384141823	-5.082844676	-10.58386221	-0.00423131	0.00403036	-0.00078352	-40.81146337	9.692314386	-8.671697153	-2.247713157	64.77284762	-11.78273604	17.27520939	83.1842515	4.288855412	0	34.32
2.28	0.358773916	-5.085720572	-10.5867921	-0.00423131	0.00403036	-0.00078352	-40.84257022	9.689305321	-8.59581823	-2.250153189	64.92759856	-11.79595607	17.49045261	83.33903525	4.202709352	0	34.32
2.29	0.33384752	-5.085397741	-10.59026591	-0.00423131	0.00403036	-0.00078352	-40.87064393	9.694666815	-8.531697554	-2.246837325	65.06516857	-11.80984811	17.70432706	83.49879656	4.115903456	0	34.32
2.3	0.311223163	-5.082962253	-10.59414944	-0.00423131	0.00403036	-0.00078352	-40.89600247	9.708007594	-8.47968221	-2.238088872	65.18560746	-11.82452304	17.91928062	83.66186815	4.030811614	0	34.32
2.31	0.292321087	-5.079713084	-10.59831485	-0.00423131	0.00403036	-0.00078352	-40.91891438	9.727878309	-8.438672351	-2.224915557	65.29022371	-11.8397588	18.13727703	83.82633403	3.949889752	0	34.32
2.32	0.277983727	-5.077069404	-10.60266475	-0.00423131	0.00403036	-0.00078352	-40.93953935	9.75188873	-8.406098353	-2.208923502	65.38154104	-11.85499536	18.35950748	83.99030408	3.875668434	0	34.32
2.33	0.268408249	-5.076454145	-10.60715397	-0.00423131	0.00403036	-0.00078352	-40.95791065	9.776949279	-8.378110055	-2.192153735	65.4631278	-11.86938875	18.58623543	84.15219275	3.81067899	0	34.32
2.34	0.263156871	-5.079164242	-10.61180272	-0.00423131	0.00403036	-0.00078352	-40.97396592	9.799617201	-8.34997331	-2.176855007	65.53930989	-11.88192269	18.81679544	84.31095004	3.757312113	0	34.32
